<?xml version="1.0" standalone="no"?>
<!DOCTYPE svg PUBLIC "-//W3C//DTD SVG 20010904//EN"
 "http://www.w3.org/TR/2001/REC-SVG-20010904/DTD/svg10.dtd">
<svg version="1.0" xmlns="http://www.w3.org/2000/svg"
 width="720.000000pt" height="720.000000pt" viewBox="0 0 720.000000 720.000000"
 preserveAspectRatio="xMidYMid meet">
<metadata>
Created by potrace 1.11, written by Peter Selinger 2001-2013
</metadata>
<g transform="translate(0.000000,720.000000) scale(0.100000,-0.100000)"
fill="#000000" stroke="none">
<path d="M3438 7115 c-1 -1 -39 -6 -83 -9 -44 -4 -93 -9 -110 -11 -86 -9 -140
-17 -145 -20 -4 -2 -29 -7 -56 -10 -27 -4 -85 -15 -129 -25 -44 -11 -91 -21
-105 -24 -14 -2 -25 -5 -25 -6 0 -1 -7 -3 -15 -5 -8 -2 -62 -18 -120 -35 -58
-17 -109 -33 -115 -34 -13 -4 -28 -9 -165 -63 -128 -50 -383 -171 -388 -185
-2 -4 -9 -8 -16 -8 -14 0 -239 -137 -302 -184 -23 -17 -52 -38 -64 -46 -167
-115 -432 -356 -585 -534 -27 -32 -55 -63 -60 -69 -6 -7 -33 -41 -60 -77 -28
-35 -58 -73 -67 -84 -10 -11 -18 -23 -18 -27 0 -4 -6 -14 -12 -21 -28 -29
-192 -283 -193 -298 0 -3 -13 -25 -27 -50 -31 -51 -158 -317 -173 -360 -1 -3
-5 -14 -10 -25 -30 -76 -58 -154 -72 -200 -1 -5 -21 -71 -43 -145 -22 -74 -43
-148 -46 -165 -3 -16 -9 -48 -14 -70 -5 -22 -11 -53 -14 -70 -9 -54 -18 -110
-21 -130 -1 -11 -3 -20 -5 -20 -1 0 -4 -18 -5 -40 -2 -22 -6 -60 -9 -85 -14
-123 -19 -229 -19 -375 0 -140 4 -210 18 -380 4 -56 14 -127 31 -220 8 -44 16
-89 18 -100 8 -46 39 -175 58 -239 11 -38 21 -76 23 -85 13 -56 95 -277 144
-390 42 -93 139 -286 188 -371 37 -64 198 -306 214 -320 3 -3 20 -26 39 -52
18 -27 37 -48 42 -48 4 0 8 -5 8 -10 0 -10 13 -26 105 -129 72 -81 271 -276
324 -319 25 -20 50 -43 54 -49 4 -7 12 -13 18 -13 5 0 20 -10 32 -23 12 -13
67 -55 122 -95 55 -39 105 -76 111 -81 36 -30 292 -179 377 -218 31 -14 57
-30 57 -35 0 -4 6 -8 14 -8 7 0 49 -16 92 -36 43 -19 88 -39 99 -44 11 -5 63
-24 115 -44 196 -71 387 -123 570 -156 30 -5 69 -12 85 -15 41 -7 155 -22 245
-32 154 -16 575 -9 735 12 22 3 54 7 70 10 197 26 436 82 640 151 61 20 113
42 117 48 4 6 8 8 8 4 0 -8 69 17 157 58 29 13 56 24 61 25 7 2 173 88 252
131 78 43 125 72 128 80 2 4 8 8 13 8 9 0 88 49 99 60 3 4 22 16 43 29 21 13
43 28 50 34 7 7 48 39 92 71 44 33 88 69 97 80 10 12 18 18 18 15 0 -9 119
100 230 211 88 88 183 194 255 284 17 21 35 43 40 50 6 6 26 34 45 61 19 28
37 52 40 55 13 12 127 188 137 210 4 8 9 17 12 20 22 19 172 318 227 452 69
167 139 378 159 478 2 8 4 15 5 15 2 0 6 18 15 64 3 19 7 37 9 40 2 3 7 22 10
41 3 19 8 46 11 60 5 26 14 78 19 120 2 14 7 46 11 72 26 166 36 512 21 713
-9 123 -21 221 -42 340 -21 124 -23 132 -55 260 -17 66 -32 127 -34 135 -7 33
-84 251 -120 340 -70 172 -260 536 -287 548 -5 2 -8 8 -8 13 0 9 -92 149 -118
180 -7 8 -29 37 -49 64 -137 186 -439 495 -608 622 -6 5 -37 29 -70 54 -33 25
-107 76 -165 115 -58 38 -107 71 -110 74 -4 4 -29 18 -115 64 -11 6 -22 13
-25 16 -5 6 -269 136 -305 151 -11 4 -40 17 -65 28 -57 24 -246 92 -300 106
-8 2 -40 11 -70 20 -30 9 -71 20 -90 25 -19 5 -53 13 -75 19 -68 17 -306 59
-380 66 -38 4 -86 10 -105 12 -40 5 -537 13 -542 8z m-133 -1579 c132 -10 210
-16 250 -21 22 -3 60 -8 85 -10 25 -3 56 -7 70 -9 14 -3 45 -8 70 -11 25 -3
83 -12 130 -21 47 -8 94 -17 105 -19 29 -5 62 -13 135 -31 36 -9 70 -17 75
-18 33 -7 103 -28 120 -36 11 -5 31 -12 45 -15 42 -11 171 -65 255 -107 111
-56 236 -144 284 -202 9 -10 27 -31 41 -46 32 -35 43 -52 79 -125 90 -182 75
-405 -38 -565 -43 -60 -165 -174 -239 -224 -87 -57 -258 -145 -317 -163 -5 -1
-53 -18 -105 -36 -52 -18 -98 -34 -103 -34 -4 -1 -31 -8 -60 -17 -28 -8 -63
-17 -77 -20 -14 -2 -32 -7 -40 -10 -8 -3 -28 -7 -45 -10 -16 -3 -41 -7 -55
-11 -14 -3 -36 -7 -50 -10 -14 -3 -34 -7 -45 -9 -71 -14 -223 -37 -231 -35 -5
1 -20 0 -34 -4 -38 -9 -122 -19 -280 -32 -120 -10 -154 -12 -300 -20 -146 -7
-167 -13 -150 -45 5 -9 5 -21 1 -28 -6 -10 -6 -62 -1 -69 2 -2 3 -9 4 -15 1
-9 18 -12 56 -10 88 5 494 8 503 4 4 -2 47 -6 95 -8 123 -5 302 -19 382 -29
19 -3 60 -7 90 -10 30 -3 71 -8 90 -11 19 -3 46 -7 60 -9 14 -1 39 -5 55 -8
17 -4 45 -9 63 -12 124 -20 233 -43 317 -67 39 -11 79 -21 90 -23 38 -7 246
-82 257 -93 7 -7 19 -12 27 -12 16 0 123 -58 194 -105 49 -33 114 -91 157
-141 24 -27 71 -112 77 -137 1 -7 6 -28 10 -47 18 -83 5 -227 -31 -324 -94
-259 -361 -461 -790 -598 -86 -27 -340 -92 -401 -102 -16 -2 -52 -9 -80 -14
-27 -6 -53 -8 -57 -6 -5 3 -8 1 -8 -3 0 -5 -12 -9 -27 -9 -16 -1 -44 -5 -63
-8 -19 -3 -55 -8 -80 -11 -25 -3 -54 -7 -66 -9 -12 -2 -57 -7 -100 -11 -43 -4
-95 -9 -114 -11 -19 -2 -64 -6 -100 -9 -36 -2 -99 -7 -140 -10 -41 -4 -187 -8
-323 -10 -223 -4 -252 -2 -290 14 -23 10 -51 28 -62 41 -20 22 -20 37 -20 821
l0 799 -150 -5 c-334 -9 -551 -17 -577 -19 -44 -5 -61 23 -56 89 3 33 11 63
21 72 17 17 0 17 544 24 192 2 223 5 228 18 2 9 4 69 3 133 -1 133 2 140 72
172 32 14 69 20 126 21 44 1 86 5 92 9 6 3 13 2 17 -4 4 -6 10 -8 14 -5 5 2
46 7 92 10 173 11 245 16 269 20 14 2 59 6 101 10 42 3 85 7 95 9 11 2 40 7
67 10 26 3 68 9 94 12 26 4 58 10 71 15 15 6 21 5 17 -1 -4 -6 2 -7 18 -1 13
5 41 12 62 15 21 4 47 8 59 11 12 3 33 7 49 10 61 11 86 17 182 41 117 29 289
87 359 120 28 13 56 24 63 24 7 0 13 3 13 8 0 4 15 13 33 21 32 14 142 88 185
126 13 11 38 40 56 65 107 149 108 306 3 475 -22 36 -123 131 -178 167 -81 54
-192 107 -314 150 -60 22 -118 42 -127 44 -10 2 -26 6 -35 8 -10 2 -30 9 -45
15 -16 6 -28 9 -28 6 0 -2 -15 1 -32 6 -40 12 -219 49 -268 55 -19 3 -46 7
-60 9 -45 8 -210 29 -319 40 -74 8 -210 17 -321 21 -58 3 -109 5 -115 5 -5 0
-49 0 -97 -1 -48 -1 -103 3 -123 10 -68 22 -85 115 -29 159 25 19 37 20 237
16 117 -3 244 -7 282 -9z"/>
<path d="M3158 3345 c-1 -1 -63 -5 -137 -9 -73 -3 -136 -7 -138 -10 -4 -3 -5
-98 -3 -196 1 -8 0 -49 -1 -91 -2 -41 1 -80 4 -86 4 -7 4 -14 0 -16 -10 -6 -8
-100 1 -116 4 -6 4 -11 -1 -11 -6 0 -9 -312 -2 -330 1 -3 0 -9 -1 -15 -1 -5
-2 -46 -2 -90 0 -44 1 -84 2 -90 1 -5 1 -14 0 -20 -2 -13 -2 -87 0 -100 1 -5
1 -14 0 -20 -4 -24 -2 -217 4 -222 3 -3 1 -14 -4 -24 -7 -11 -7 -20 0 -24 5
-3 6 -13 3 -21 -5 -15 20 -16 258 -10 145 4 284 8 309 11 25 2 86 7 135 10 50
4 110 9 135 11 25 2 63 6 85 9 22 3 60 7 85 10 25 3 56 8 70 10 14 2 45 6 70
9 25 3 56 8 70 11 14 3 50 9 80 15 30 6 66 13 80 16 14 3 39 8 55 11 17 3 37
9 46 14 9 4 18 6 20 4 3 -2 43 7 89 21 47 14 90 26 95 28 6 1 30 8 55 15 25 7
50 16 55 19 6 4 15 7 21 8 27 4 244 115 296 151 74 50 160 132 192 180 26 40
64 164 60 198 -2 11 -5 50 -7 87 -11 165 -132 282 -427 411 -35 15 -247 84
-285 91 -11 3 -65 14 -119 26 -133 28 -262 51 -311 56 -22 1 -51 5 -65 8 -23
4 -75 10 -185 21 -22 2 -68 7 -103 10 -88 9 -180 14 -382 21 -96 3 -180 7
-187 9 -6 2 -13 2 -15 0z"/>
</g>
</svg>
